<?xml version="1.0" encoding="utf-8"?>
<!-- Svg Vector Icons : http://www.onlinewebfonts.com/icon -->
<!DOCTYPE svg PUBLIC "-//W3C//DTD SVG 1.1//EN" "http://www.w3.org/Graphics/SVG/1.1/DTD/svg11.dtd">
<svg version="1.1" xmlns="http://www.w3.org/2000/svg" xmlns:xlink="http://www.w3.org/1999/xlink" x="0px" y="0px" viewBox="0 0 1000 1000" enable-background="new 0 0 1000 1000" xml:space="preserve">
<metadata> Svg Vector Icons : http://www.onlinewebfonts.com/icon </metadata>
<g><g transform="translate(0.000000,511.000000) scale(0.100000,-0.100000)"><path d="M2856.5,4976.9c-438.3-115.8-1144.9-610.1-1386.3-967.3c-98.5-144.8-193.1-347.5-239.4-511.6c-56-202.7-61.8-612-9.7-857.2c98.5-459.5,332.1-982.7,681.6-1519.5l139-214.3L2063,513c129.4-2307.2,419-4010.1,822.5-4832.6c108.1-222,214.3-374.6,303.1-440.2c48.3-36.7,61.8-36.7,150.6-17.4c366.8,85,563.8,563.8,532.9,1297.5c-44.4,1063.8-34.8,1440.3,46.3,1892.1c81.1,442.1,237.5,834.1,415.1,1036.8c316.6,361.1,751.1,434.4,1123.7,185.3c303.1-200.8,519.4-629.4,623.6-1233.7c65.6-386.1,83-710.5,65.6-1224.1c-29-795.5-21.3-1121.8,27-1320.6c96.5-391.9,264.5-600.4,517.4-641c65.7-9.7,86.9-3.9,141,40.5c32.8,29,96.5,106.2,140.9,169.9c475,700.8,824.4,2548.6,961.5,5087.5l21.2,391.9l141,216.2c351.4,542.5,583.1,1058,681.5,1519.5c52.1,249.1,48.3,656.4-9.6,857.2c-48.3,164.1-140.9,366.8-239.4,511.6c-175.7,260.6-658.4,641-1061.9,839.9c-264.5,129.4-382.3,156.4-691.2,156.4c-312.8-1.9-486.6-44.4-903.6-214.3c-144.8-59.8-364.9-144.8-486.6-187.3c-196.9-69.5-241.3-77.2-395.8-77.2c-224,0-374.6,42.5-845.7,237.5c-498.1,204.7-604.3,233.6-901.7,243.3C3043.8,5013.6,2976.3,5009.7,2856.5,4976.9z M3493.7,4712.4c69.5-17.4,301.2-98.5,513.6-181.5c548.3-212.4,652.6-237.5,973.1-239.4c303.1,0,343.7,9.7,897.8,225.9c498.1,193.1,662.2,235.5,936.4,235.5c281.9,0,444.1-50.2,743.3-229.8c712.5-428.6,1013.6-861.1,1015.6-1457.7c1.9-239.4-21.2-384.2-100.4-644.9c-108.1-355.3-293.5-724-596.6-1189.3l-169.9-260.6l-11.6-328.2c-50.2-1314.8-235.5-2890.3-447.9-3813.2c-125.5-546.4-320.5-1058-488.5-1289.7c-59.9-79.2-61.8-81.1-113.9-54.1c-106.2,56-196.9,225.9-245.2,471.1c-40.5,195-44.4,517.4-15.4,1017.5c65.6,1079.3-106.2,2011.8-461.4,2535c-94.6,141-283.8,316.7-415.1,386.1c-135.1,71.4-378.4,139-496.2,139c-44.4,0-139-13.5-214.3-29c-469.2-98.5-814.8-482.7-1007.8-1119.8c-156.4-519.4-218.2-1200.9-175.7-1921.1c29-482.7,27-758.8-3.9-951.8c-46.3-268.4-142.9-469.2-254.9-527.1c-52.1-27-54.1-25.1-113.9,54.1c-449.9,617.8-801.3,2463.6-924.8,4861.6c-11.6,218.2-23.2,440.2-27,492.3c-3.9,83-25.1,127.4-140.9,299.3C1277.2,2494,1190.3,3445.8,1883.5,4110c312.8,297.3,749.1,556,1060,627.5C3080.5,4768.4,3306.4,4758.7,3493.7,4712.4z"/></g></g>
</svg>